# xmcd CD database file
#
# Track frame offsets:
#	182
#	14775
#	26487
#	38387
#	50037
#	60007
#	70667
#	85747
#	98332
#	110232
#	124122
#	139047
#	147965
#	161465
#	175197
#	186930
#	195915
#	206742
#	218205
#
# Disc length: 3122 seconds
#
# Revision: 0
# Processed by: cddbd v1.5PL3 Copyright (c) Steve Scherf et al.
# Submitted via: Feurio! 1.67 - http://www.feurio.com
#
DISCID=020c3013
DTITLE=Willie Nelson - Always On My Mind
DYEAR=1900
DGENRE=Country
TTITLE0=Will You Remember Mine
TTITLE1=Some Other Time
TTITLE2=I Hope So
TTITLE3=Is There Something In Your Mind?
TTITLE4=Broken Promises
TTITLE5=Blame It On The Times
TTITLE6=Face Of A Fighter
TTITLE7=Shelter Of Your Arms
TTITLE8=End Of Understanding
TTITLE9=Home Is Where You're Happy
TTITLE10=And So Will You My Love
TTITLE11=Waiting Time
TTITLE12=No Tomorrow In Sight
TTITLE13=Everything But You
TTITLE14=Happiness Lives Next Door
TTITLE15=Right From Wrong
TTITLE16=Go Away
TTITLE17=I'll Stay Around
TTITLE18=Always On My Mind (live)
EXTD=
EXTT0=
EXTT1=
EXTT2=
EXTT3=
EXTT4=
EXTT5=
EXTT6=
EXTT7=
EXTT8=
EXTT9=
EXTT10=
EXTT11=
EXTT12=
EXTT13=
EXTT14=
EXTT15=
EXTT16=
EXTT17=
EXTT18=
PLAYORDER=
